# xmcd CD database file
#
# Track frame offsets:
#	150
#	15870
#	47464
#	86472
#	115107
#	134362
#	154575
#	174505
#	218455
#	254790
#
# Disc length: 3749 seconds
#
# Revision: 0
# Processed by: cddbd v1.5.2PL0 Copyright (c) Steve Scherf et al.
# Submitted via: CDex 1.51
#
DISCID=730ea30a
DTITLE=sonny heinilä - tribus
DYEAR=1999
DGENRE=Jazz
TTITLE0=tribus #1
TTITLE1=master's choice
TTITLE2=paw marks
TTITLE3=chanson
TTITLE4=tribus #2
TTITLE5=harkara
TTITLE6=anbar
TTITLE7=three pieces
TTITLE8=jag vet en dejlig rosa
TTITLE9=tribus #3
EXTD=YEAR: 1999
EXTT0=
EXTT1=
EXTT2=
EXTT3=
EXTT4=
EXTT5=
EXTT6=
EXTT7=
EXTT8=
EXTT9=
PLAYORDER=
